<svg width="230" height="230" viewBox="0 0 230 230" fill="none" xmlns="http://www.w3.org/2000/svg">
<path d="M131.003 161.928L155.433 138.981L145.734 137.179C141.052 136.239 137.684 130.808 137.684 126.032V104.753H115H92.3163V126.032C92.3163 130.808 88.948 136.238 84.2667 137.179L74.5672 138.981L98.998 161.928C107.993 170.377 122.007 170.377 131.003 161.928Z" fill="#FFD8D5"/>
<path d="M126.697 104.753V137.019C126.697 141.795 130.065 147.225 134.746 148.166L143.106 150.559L155.433 138.981L145.733 137.179C141.052 136.239 137.684 130.808 137.684 126.032V104.753H126.697Z" fill="#FDCBC6"/>
<path d="M143.319 136.013L115 157.179L86.6808 136.012C85.1624 134.877 83.1953 134.531 81.3805 135.078L33.8037 149.434C28.6849 150.978 24.8804 155.285 23.9802 160.556L13.4981 221.921C12.7767 226.144 16.0299 230 20.3137 230H209.686C213.971 230 217.223 226.144 216.502 221.921L206.02 160.556C205.12 155.285 201.316 150.978 196.197 149.434L148.62 135.078C146.805 134.531 144.838 134.877 143.319 136.013Z" fill="white"/>
<path d="M81.3804 135.079L73.1957 137.548L91.2592 162.825C92.681 164.814 95.2941 165.55 97.5451 164.594L115 157.179L86.6808 136.013C85.1624 134.877 83.1953 134.531 81.3804 135.079Z" fill="#656D78"/>
<path d="M132.455 164.594C134.706 165.55 137.319 164.815 138.741 162.825L156.804 137.548L156.761 137.535L148.62 135.079C146.805 134.531 144.838 134.878 143.319 136.013L115 157.179L132.455 164.594Z" fill="#656D78"/>
<path d="M115 157.179L101.274 163.01L109.298 172.338H120.702L128.726 163.01L115 157.179Z" fill="#FFDC84"/>
<path d="M120.702 172.338H115H109.298L98.767 230H131.233L120.702 172.338Z" fill="#FFDC84"/>
<path d="M115 219.295C115 219.295 83.1953 134.531 81.3805 135.079L33.8037 149.434C28.6849 150.978 24.8804 155.285 23.9802 160.556L13.4981 221.921C12.7767 226.144 16.0299 230 20.3137 230H209.686C213.971 230 217.223 226.144 216.502 221.921L206.02 160.556C205.12 155.285 201.316 150.978 196.197 149.434L148.62 135.078C146.805 134.531 115 219.295 115 219.295Z" fill="#FC534E"/>
<path d="M216.502 221.921L206.02 160.556C205.12 155.285 201.315 150.978 196.196 149.434L148.62 135.078C148.126 134.93 145.417 141.085 141.733 150.128L176.238 160.539C178.846 161.326 180.784 163.521 181.243 166.206L192.14 230H209.686C213.97 230 217.223 226.144 216.502 221.921Z" fill="#E14945"/>
<path d="M165.576 182.076C163.659 182.076 162.106 180.522 162.106 178.606V139.223C162.106 126.061 151.817 115.265 138.683 114.644C136.769 114.554 135.29 112.929 135.381 111.015C135.471 109.101 137.097 107.624 139.01 107.713C155.852 108.508 169.045 122.348 169.045 139.222V178.605C169.045 180.522 167.492 182.076 165.576 182.076Z" fill="#323232"/>
<path d="M64.4242 156.399C62.5079 156.399 60.9545 154.846 60.9545 152.929V139.223C60.9545 122.396 74.1094 108.557 90.903 107.717C92.822 107.618 94.446 109.096 94.5416 111.009C94.6373 112.923 93.1634 114.552 91.2498 114.648C78.1533 115.302 67.894 126.097 67.894 139.223V152.929C67.894 154.846 66.3406 156.399 64.4242 156.399Z" fill="#323232"/>
<path d="M165.537 195.37C173.536 195.37 180.02 188.886 180.02 180.887C180.02 172.888 173.536 166.404 165.537 166.404C157.538 166.404 151.054 172.888 151.054 180.887C151.054 188.886 157.538 195.37 165.537 195.37Z" fill="#656D78"/>
<path d="M165.537 187.268C169.061 187.268 171.918 184.411 171.918 180.887C171.918 177.363 169.061 174.506 165.537 174.506C162.013 174.506 159.156 177.363 159.156 180.887C159.156 184.411 162.013 187.268 165.537 187.268Z" fill="white"/>
<path d="M75.8991 209.309H71.5731C69.6568 209.309 68.1034 207.756 68.1034 205.839C68.1034 203.923 69.6568 202.369 71.5731 202.369H75.8991C76.4215 202.369 76.9247 202.149 77.2791 201.766C77.6335 201.383 77.8141 200.864 77.7737 200.344L75.2455 167.905C75.1556 166.755 74.8825 165.634 74.4333 164.574C72.8314 160.792 69.0341 158.36 64.745 158.36C64.7185 158.36 64.692 158.36 64.665 158.36L64.0936 158.364C59.6801 158.395 55.7337 161.083 54.2724 165.051C53.935 165.968 53.7252 166.928 53.6488 167.905L51.1215 200.344C51.0807 200.865 51.2608 201.383 51.6152 201.766C51.9701 202.15 52.4732 202.369 52.9952 202.369H57.3212C59.2376 202.369 60.791 203.923 60.791 205.839C60.791 207.756 59.2376 209.309 57.3212 209.309H52.9952C50.5447 209.309 48.185 208.277 46.5215 206.478C44.8576 204.68 44.0122 202.248 44.2031 199.804L46.7304 167.366C46.8562 165.754 47.2026 164.168 47.7605 162.654C50.2146 155.989 56.7583 151.477 64.0447 151.426L64.6161 151.422C64.6592 151.422 64.7023 151.421 64.7454 151.421C71.8287 151.421 78.1299 155.511 80.8225 161.867C81.5647 163.618 82.0157 165.468 82.1639 167.366L84.6917 199.805C84.8821 202.247 84.0372 204.68 82.3728 206.479C80.7093 208.278 78.3496 209.309 75.8991 209.309Z" fill="black"/>
<path d="M74.9674 73.4504V60.4684H67.0486C63.2828 60.4684 60.2303 63.5209 60.2303 67.2867V72.5601C60.2303 76.3259 63.2828 79.3783 67.0486 79.3783H74.9674V73.4504V73.4504Z" fill="#FFD8D5"/>
<path d="M162.951 60.4684H155.033V73.4504V79.3783H162.951C166.717 79.3783 169.77 76.3259 169.77 72.5601V67.2867C169.77 63.5213 166.717 60.4684 162.951 60.4684Z" fill="#FDCBC6"/>
<path d="M144.11 16.2527C137.28 10.3725 127.681 10.7543 115 10.6128C102.319 10.7543 92.7196 10.372 85.8902 16.2523C77.1798 23.7524 72.4603 34.8908 72.4603 46.3859V79.7992C72.4603 91.2943 86.9077 121.784 115 121.784C143.091 121.784 157.539 91.2943 157.539 79.7992V46.3863C157.539 34.8913 152.82 23.7529 144.11 16.2527Z" fill="#FFD8D5"/>
<path d="M144.11 16.2527C141.397 13.9172 138.246 12.5718 134.639 11.7866C134.639 11.8037 134.64 11.8189 134.64 11.8365V79.7997C134.64 89.6124 124.109 113.265 103.55 119.977C107.074 121.128 110.89 121.785 115 121.785C143.092 121.785 157.539 91.2947 157.539 79.7997V46.3863C157.539 34.8913 152.82 23.7529 144.11 16.2527Z" fill="#FDCBC6"/>
<path d="M140.592 0H115H89.4084C76.2387 0 65.5626 10.6761 65.5626 23.8459V62.9921C65.5626 62.9921 72.1288 62.8435 76.3483 67.0194C77.227 67.8891 78.7202 67.2534 78.7202 66.0172V33.9865C78.7202 28.1656 83.4392 23.4465 89.2602 23.4465H98.8375C101.35 23.4465 103.784 24.3149 105.729 25.9046L106.668 26.6728C109.019 28.595 111.962 29.6448 115 29.6448C118.036 29.6448 120.98 28.5946 123.331 26.6728L124.271 25.9046C126.215 24.3149 128.65 23.4465 131.162 23.4465H140.739C146.56 23.4465 151.279 28.1656 151.279 33.9865V66.0176C151.279 67.2539 152.772 67.8895 153.651 67.0198C157.87 62.8439 164.437 62.9926 164.437 62.9926V23.8459C164.437 10.6761 153.761 0 140.592 0Z" fill="#323232"/>
<path d="M140.592 0H117.692C130.739 0 141.332 10.4789 141.529 23.4789C146.981 23.8827 151.279 28.4311 151.279 33.9865V66.0176C151.279 67.2539 152.773 67.8895 153.651 67.0198C157.871 62.8439 164.437 62.9926 164.437 62.9926V23.8459C164.437 10.6761 153.761 0 140.592 0Z" fill="black"/>
</svg>
