<svg width="245" height="250" viewBox="0 0 245 250" fill="none" xmlns="http://www.w3.org/2000/svg">
<path d="M194.31 154.688V100.703C176.713 91.4653 164.513 74.6236 161.341 54.9138H50.6896V82.734L54.9138 86.9581L60.5277 81.3442C66.678 75.1939 74.8517 71.8103 83.5408 71.8103C93.4844 71.8103 102.752 76.2626 108.957 84.0265C114.968 91.5371 118.276 100.974 118.276 110.592C118.276 114.694 117.689 118.686 116.603 122.5H157.463C158.925 119.987 161.62 118.276 164.741 118.276C169.409 118.276 173.19 122.056 173.19 126.724C173.19 131.392 169.409 135.172 164.741 135.172C161.624 135.172 158.929 133.462 157.463 130.948H113.215C111.251 134.615 108.738 138.011 105.717 141.031L54.9138 191.835L50.6896 187.611V232.328H194.31V167.403L185.862 176.907V215.431H135.172V164.741H185.376L194.31 154.688ZM152.069 105.603H126.724V97.1552H152.069V105.603ZM152.069 88.7069H126.724V80.2586H152.069V88.7069ZM152.069 71.8103H126.724V63.3621H152.069V71.8103ZM92.931 215.431H84.4827V206.983H92.931V215.431ZM109.828 215.431H101.379V206.983H109.828V215.431ZM126.724 215.431H118.276V206.983H126.724V215.431Z" fill="#323232"/>
<path d="M164.56 188.156L177.414 173.697V173.19H143.621V206.983H177.414V186.411L164.923 200.465L149.083 184.624L155.055 178.651L164.56 188.156Z" fill="#FC534E"/>
<path d="M42.2414 46.4655H160.593C160.572 45.8446 160.517 45.2321 160.517 44.6069V38.0172H33.7931V72.7143C36.7584 73.4113 39.5971 74.5138 42.2414 76.0091V46.4655Z" fill="black"/>
<path d="M99.7446 135.058C101.029 133.774 102.161 132.389 103.213 130.948H74.4209L58.3522 163.077L46.1065 126.327L40.877 139.397H25.3448V130.948H35.1575L46.8246 101.776L59.9236 141.061L69.1998 122.5H107.724C109.08 118.77 109.828 114.804 109.828 110.715C109.828 102.883 107.175 95.3219 102.355 89.3025C97.7677 83.5534 90.9077 80.2586 83.5408 80.2586C77.1074 80.2586 71.0542 82.7635 66.5006 87.3171L54.9138 98.9039L43.327 87.3171C38.7734 82.7635 32.7202 80.2586 26.2868 80.2586C18.9241 80.2586 12.0641 83.5534 7.4725 89.3025C2.65276 95.3219 0 102.883 0 110.592C0 119.911 3.58207 128.557 10.083 135.058L54.9138 179.889L99.7446 135.058Z" fill="#FC534E"/>
<path d="M206.983 105.789L205.77 105.426C204.744 105.118 203.76 104.742 202.759 104.391V240.776H42.2414V179.163L33.7931 170.714V249.224H211.207V104.391C210.206 104.746 209.222 105.122 208.195 105.426L206.983 105.789Z" fill="black"/>
<path d="M207.819 5.42803L206.983 4.92535L206.146 5.42803C194.851 12.2078 182.077 16.0982 168.966 16.7867V44.6069C168.966 68.6803 184.189 89.5602 206.983 96.9566C229.776 89.5602 245 68.6803 245 44.6069V16.7867C231.888 16.0982 219.11 12.2078 207.819 5.42803V5.42803ZM232.328 54.9138C232.328 57.2455 230.435 59.1379 228.104 59.1379H215.431V71.8104C215.431 74.1421 213.539 76.0345 211.207 76.0345H202.759C200.427 76.0345 198.535 74.1421 198.535 71.8104V59.1379H185.862C183.53 59.1379 181.638 57.2455 181.638 54.9138V46.4655C181.638 44.1338 183.53 42.2414 185.862 42.2414H198.535V29.569C198.535 27.2373 200.427 25.3448 202.759 25.3448H211.207C213.539 25.3448 215.431 27.2373 215.431 29.569V42.2414H228.104C230.435 42.2414 232.328 44.1338 232.328 46.4655V54.9138Z" fill="#FFCE54"/>
<path d="M114.052 25.3448C114.052 20.6856 117.841 16.8966 122.5 16.8966C127.159 16.8966 130.948 20.6856 130.948 25.3448V29.569H147.845V25.3448C147.845 11.3672 136.478 0 122.5 0C108.522 0 97.1552 11.3672 97.1552 25.3448V29.569H114.052V25.3448Z" fill="black"/>
</svg>
