<svg width="256" height="256" viewBox="0 0 256 256" fill="none" xmlns="http://www.w3.org/2000/svg">
<path d="M167.915 65.34V190.66L165.345 208L161.015 237.175C160.732 239.072 159.778 240.805 158.325 242.057C156.872 243.31 155.018 243.999 153.1 244H102.9C100.982 243.999 99.1277 243.31 97.675 242.057C96.2224 240.805 95.2678 239.072 94.985 237.175L90.655 208L88.085 190.66V65.34L90.655 48L94.985 18.825C95.2678 16.9278 96.2224 15.1952 97.675 13.9426C99.1277 12.69 100.982 12.0006 102.9 12H153.1C155.018 12.0006 156.872 12.69 158.325 13.9426C159.778 15.1952 160.732 16.9278 161.015 18.825L165.345 48L167.915 65.34Z" fill="#323232"/>
<path d="M167.915 65.34V190.66L165.345 208H90.655L88.085 190.66V65.34L90.655 48H165.345L167.915 65.34Z" fill="black"/>
<path d="M180 92H192C193.061 92 194.078 92.4214 194.828 93.1716C195.579 93.9217 196 94.9391 196 96V116C196 117.061 195.579 118.078 194.828 118.828C194.078 119.579 193.061 120 192 120H180V92Z" fill="#EF5249"/>
<path d="M160 64H96C82.7452 64 72 74.7452 72 88V168C72 181.255 82.7452 192 96 192H160C173.255 192 184 181.255 184 168V88C184 74.7452 173.255 64 160 64Z" fill="#323232"/>
<path d="M69.6255 203.2C64.1706 199.091 59.7409 193.775 56.6831 187.668C53.6253 181.561 52.0224 174.829 52 168V124H60V168C59.983 173.595 61.2798 179.116 63.7859 184.118C66.2921 189.12 69.9376 193.464 74.429 196.8L69.6255 203.2Z" fill="#FDCBC6"/>
<path d="M24 92H40L56 104V92H96C99.1826 92 102.235 90.7357 104.485 88.4853C106.736 86.2348 108 83.1826 108 80V40C108 36.8174 106.736 33.7652 104.485 31.5147C102.235 29.2643 99.1826 28 96 28H24C20.8174 28 17.7652 29.2643 15.5147 31.5147C13.2643 33.7652 12 36.8174 12 40V80C12 83.1826 13.2643 86.2348 15.5147 88.4853C17.7652 90.7357 20.8174 92 24 92Z" fill="#FC534E"/>
<path d="M216 164L200 152V164H192C184.574 164 177.452 166.95 172.201 172.201C166.95 177.452 164 184.574 164 192V200C164 207.426 166.95 214.548 172.201 219.799C177.452 225.05 184.574 228 192 228H216C223.426 228 230.548 225.05 235.799 219.799C241.05 214.548 244 207.426 244 200V192C244 184.574 241.05 177.452 235.799 172.201C230.548 166.95 223.426 164 216 164Z" fill="#FC534E"/>
<path d="M124 84H132V92H124V84Z" fill="white"/>
<path d="M87.8927 109.466L91.8925 102.539L98.8205 106.539L94.8207 113.466L87.8927 109.466Z" fill="white"/>
<path d="M84 124H92V132H84V124Z" fill="white"/>
<path d="M87.8904 146.537L94.8184 142.537L98.8182 149.465L91.8902 153.465L87.8904 146.537Z" fill="white"/>
<path d="M102.532 164.102L106.532 157.174L113.459 161.174L109.459 168.102L102.532 164.102Z" fill="white"/>
<path d="M124 164H132V172H124V164Z" fill="white"/>
<path d="M142.533 161.173L149.46 157.173L153.46 164.101L146.533 168.101L142.533 161.173Z" fill="white"/>
<path d="M157.173 149.468L161.173 142.541L168.101 146.541L164.101 153.468L157.173 149.468Z" fill="white"/>
<path d="M164 124H172V132H164V124Z" fill="white"/>
<path d="M157.173 106.539L164.101 102.539L168.1 109.467L161.172 113.467L157.173 106.539Z" fill="white"/>
<path d="M142.531 94.8227L146.531 87.8947L153.459 91.8945L149.459 98.8225L142.531 94.8227Z" fill="white"/>
<path d="M200 208H208V216H200V208Z" fill="#FFDC84"/>
<path d="M200 176H208V200H200V176Z" fill="#FFDC84"/>
</svg>
